<?xml version="1.0" encoding="UTF-8" standalone="no"?>
<!DOCTYPE svg PUBLIC "-//W3C//DTD SVG 1.1//EN" "http://www.w3.org/Graphics/SVG/1.1/DTD/svg11.dtd">
<svg width="100%" height="100%" viewBox="0 0 1167 1198" version="1.1" xmlns="http://www.w3.org/2000/svg" xmlns:xlink="http://www.w3.org/1999/xlink" xml:space="preserve" xmlns:serif="http://www.serif.com/" style="fill-rule:evenodd;clip-rule:evenodd;stroke-linejoin:round;stroke-miterlimit:2;">
    <g transform="matrix(0.396825,-6.07709e-16,-6.07709e-16,-0.396825,-326.984,2733.08)">
        <path d="M1055,6873C955,6842 879,6773 844,6683C825,6633 824,6585 824,5366L824,4100L849,4051C882,3983 938,3929 1007,3897L1066,3869L3523,3869L3581,3897C3655,3933 3697,3973 3734,4044L3764,4100L3764,6652L3734,6713C3714,6754 3687,6787 3652,6815C3555,6892 3630,6888 2295,6887C1360,6887 1088,6884 1055,6873ZM2529,6320C2631,6297 2761,6238 2857,6174C3008,6072 3161,5883 3225,5718C3284,5564 3317,5337 3284,5305C3277,5297 3240,5292 3192,5292C3144,5292 3107,5297 3100,5305C3093,5312 3087,5341 3087,5370C3086,5538 3003,5733 2873,5876C2724,6040 2535,6122 2305,6125C2162,6126 2067,6105 1937,6042C1710,5933 1561,5738 1508,5479C1499,5434 1491,5382 1491,5362C1491,5305 1466,5291 1369,5294C1369,5294 1291.23,5294.09 1281.84,5299.59C1277.3,5302.25 1281.74,5359.64 1281.74,5359.64C1277.74,5441.64 1305,5586 1344,5694C1448,5981 1704,6219 2002,6306C2176,6356 2354,6361 2529,6320ZM2783,5794C2783,5782 2698,5657 2592,5510C2546,5447 2509,5388 2509,5378C2509,5344 2471,5276 2433,5243C2351,5171 2238,5171 2156,5243C2109,5284 2090,5328 2090,5397C2090,5520 2182,5607 2312,5607C2363,5607 2377,5613 2457,5667C2506,5700 2591,5752 2645,5782C2738,5834 2746,5836 2764,5820C2774,5811 2783,5799 2783,5794ZM3022,5153C3031,5144 3035,5054 3035,4814C3035,4536 3032,4485 3018,4465C3003,4443 2994,4442 2869,4442C2761,4442 2733,4445 2718,4459C2700,4475 2699,4500 2699,4809C2699,5053 2702,5144 2711,5153C2729,5171 3004,5171 3022,5153ZM2444,5006C2462,4988 2462,4472 2444,4454C2436,4446 2388,4442 2298,4442C2191,4442 2161,4445 2148,4458C2134,4472 2132,4512 2132,4734C2132,4922 2135,4997 2144,5006C2162,5024 2427,5024 2444,5006ZM1890,4862C1896,4850 1901,4767 1901,4665C1901,4430 1909,4442 1735,4442C1554,4442 1565,4428 1565,4659C1565,4765 1569,4850 1575,4862C1585,4881 1599,4883 1733,4883C1866,4883 1880,4881 1890,4862Z" style="fill:rgb(225,85,64);fill-rule:nonzero;"/>
    </g>
</svg>
